<svg id="af411e4c-c071-4f0c-a42a-3cf2e979ffb6" data-name="Layer 1" xmlns="http://www.w3.org/2000/svg" viewBox="0 0 1600 900"><rect x="369.17" y="739.56" width="24.67" height="146.62" fill="#c8412e"/><rect x="418.22" y="798.07" width="24.68" height="88.11" fill="#c8412e"/><rect x="418.22" y="759.27" width="24.68" height="88.12" fill="#c8412e"/><rect x="682.17" y="803.33" width="16.78" height="82.85" fill="#c8412e"/><rect x="614.68" y="798.26" width="16.77" height="87.92" fill="#c8412e"/><rect x="570.74" y="753.03" width="26.74" height="110.71" fill="#c8412e"/><rect x="650.04" y="735.34" width="27.78" height="128.4" fill="#c8412e"/><polygon points="339.97 888.02 339.97 758.28 307.65 741.41 307.65 888.02 339.97 888.02" fill="#c8412e"/><rect x="222.16" y="803.33" width="27.12" height="90.58" fill="#c8412e"/><rect x="286.35" y="803.33" width="16.83" height="90.58" fill="#c8412e"/><rect x="176.96" y="779.02" width="16.83" height="114.9" fill="#c8412e"/><rect x="200.64" y="762.5" width="8.42" height="102.07" fill="#c8412e"/><rect x="235.79" y="744.67" width="8.42" height="102.07" fill="#c8412e"/><rect x="111.58" y="864.27" width="21.93" height="52.29" fill="#c8412e"/><rect x="141.56" y="844.34" width="12.74" height="36.23" fill="#c8412e"/><rect x="163.49" y="864.27" width="13.61" height="52.29" fill="#c8412e"/><rect x="75.03" y="850.23" width="13.61" height="66.33" fill="#c8412e"/><rect x="94.18" y="840.7" width="6.81" height="58.92" fill="#c8412e"/><rect x="131.37" y="821.17" width="6.81" height="79.71" fill="#c8412e"/><rect x="1492.37" y="874.56" width="18.97" height="41.99" fill="#c8412e"/><rect x="1474.39" y="858.57" width="11.02" height="29.09" fill="#c8412e"/><rect x="1454.67" y="874.56" width="11.77" height="41.99" fill="#c8412e"/><rect x="1531.19" y="863.3" width="11.78" height="53.26" fill="#c8412e"/><rect x="1552.19" y="873" width="11.78" height="46.56" fill="#c8412e"/><rect x="1520.51" y="855.64" width="5.88" height="47.32" fill="#c8412e"/><rect x="1488.33" y="839.96" width="5.89" height="64.01" fill="#c8412e"/><rect x="344.49" y="762.5" width="49.35" height="123.68" fill="#c8412e"/><rect x="961.1" y="642.41" width="24.2" height="236.31" fill="#e25b4d"/><rect x="1047.38" y="628.33" width="24.21" height="250.38" fill="#e25b4d"/><rect x="903.34" y="570.11" width="31.71" height="308.6" fill="#e25b4d"/><rect x="1099.91" y="431.8" width="36.69" height="437.85" fill="#e25b4d"/><rect x="1116.45" y="301.39" width="4.6" height="432.62" fill="#e25b4d"/><rect x="848.35" y="624.46" width="44.39" height="244.06" fill="#e25b4d"/><rect x="922.77" y="676.06" width="48.41" height="197.13" fill="#e25b4d"/><rect x="993.31" y="714.76" width="48.42" height="163.96" fill="#e25b4d"/><rect x="922.77" y="702.62" width="195.41" height="159.86" fill="#e25b4d"/><rect x="286.35" y="816.05" width="404.22" height="97.07" fill="#c8412e"/><rect x="1024.2" y="667.66" width="14.95" height="143.8" fill="#e25b4d"/><rect x="1194.28" y="672.24" width="24.42" height="223.13" fill="#e25b4d"/><rect x="892.33" y="764.85" width="16.6" height="130.52" fill="#e25b4d"/><rect x="959.13" y="757.47" width="16.6" height="137.9" fill="#e25b4d"/><rect x="913.24" y="666.1" width="27.49" height="186.46" fill="#e25b4d"/><rect x="1244.98" y="610.76" width="31.99" height="284.61" fill="#e25b4d"/><rect x="1304.3" y="656.98" width="44.78" height="207.54" fill="#e25b4d"/><polygon points="605.88 891.52 605.88 692.25 581.46 685.18 581.46 891.52 605.88 891.52" fill="#e25b4d"/><rect x="550.82" y="672.24" width="24.42" height="223.13" fill="#e25b4d"/><rect x="609.98" y="618.1" width="31.99" height="282.46" fill="#e25b4d"/><polygon points="522.25 877.44 490.26 877.44 490.26 618.3 522.25 590.05 522.25 877.44" fill="#e25b4d"/><rect x="690.56" y="678.16" width="44.77" height="207.52" fill="#e25b4d"/><rect x="668.65" y="772.71" width="647.66" height="107.09" fill="#c8412e"/><path d="M811,450.56c0-2.41-1.65-4.66-4.53-6.6A17.67,17.67,0,0,0,811,432.48c0-5.82-3.2-11.13-8.47-15.22v-6.5c0-4.56-7.79-8.42-18.54-9.72V316.37c3-1.64,5-4.15,5-7,0-3.51-3-6.52-7.28-8V251.83h-2.21V233.48h-1.23V171h-4.59v62.48H772.5v18.35h-2.22v49.56c-4.3,1.46-7.27,4.47-7.27,8,0,2.85,2,5.36,5,7V401c-10.75,1.3-18.55,5.16-18.55,9.72v6.5c-5.27,4.09-8.47,9.4-8.47,15.22A17.72,17.72,0,0,0,745.55,444c-2.87,1.94-4.53,4.19-4.53,6.6,0,5.94,10,11,23.92,12.75C763.31,670.81,743.43,921,743.43,921h65.19S788.74,670.81,787.1,463.31C801,461.53,811,456.5,811,450.56Z" fill="#a83226"/><rect x="396.31" y="831.59" width="339.13" height="89.41" fill="#a83226"/><path d="M733.92,875.64c-2.15-60.41-76.55-108.94-168-108.94S400,815.23,397.84,875.64Z" fill="#a83226"/><path d="M679.25,847.55c-16.06-31.35-60.74-53.9-113.37-53.9s-97.31,22.55-113.37,53.9Z" fill="#771b1b"/><rect x="722.07" y="788.35" width="53.82" height="132.65" fill="#a83226"/><rect x="890.13" y="724.87" width="48.5" height="196.13" fill="#a83226"/><polygon points="865.01 921 816.51 921 816.51 724.87 865.01 695.54 865.01 921" fill="#a83226"/><rect x="943.29" y="714.95" width="73.11" height="206.05" fill="#a83226"/><rect x="1033.2" y="755.94" width="55.75" height="165.06" fill="#a83226"/><rect x="1217.63" y="714.95" width="73.11" height="206.05" fill="#a83226"/><rect x="1307.54" y="697.09" width="71.5" height="223.91" fill="#a83226"/><rect x="1104.09" y="802.24" width="55.75" height="118.76" fill="#a83226"/><rect x="1169.06" y="772.48" width="38.69" height="148.52" fill="#a83226"/><rect x="1384.63" y="747.81" width="23.3" height="173.19" fill="#a83226"/><rect x="769.98" y="812.16" width="60.82" height="108.84" fill="#a83226"/><rect x="904.31" y="826.7" width="60.82" height="94.3" fill="#a83226"/><rect x="985.99" y="809.58" width="60.82" height="111.42" fill="#a83226"/><rect x="1053.91" y="858.19" width="60.82" height="62.81" fill="#a83226"/><rect x="1146.93" y="871.42" width="45.68" height="49.58" fill="#a83226"/><rect x="1194.79" y="831.59" width="45.68" height="89.41" fill="#a83226"/><rect x="1273.54" y="821.17" width="45.69" height="99.83" fill="#a83226"/><rect x="1416.92" y="767.51" width="10.6" height="153.49" fill="#a83226"/><rect x="1430.29" y="803.06" width="10.6" height="112.77" fill="#a83226"/><rect x="1438.78" y="837.24" width="10.59" height="78.58" fill="#a83226"/><rect x="1444.07" y="851.7" width="10.6" height="64.12" fill="#a83226"/><rect x="1451.9" y="821.17" width="13.3" height="94.65" fill="#a83226"/><polygon points="325.48 689.31 325.48 680.62 320.64 680.62 320.64 672.88 317.32 672.88 317.32 667.01 284.06 667.01 284.06 672.88 280.74 672.88 280.74 680.62 275.9 680.62 275.9 689.31 272.07 689.31 272.07 921 329.31 921 329.31 689.31 325.48 689.31" fill="#a83226"/><polygon points="1181.89 598.17 1181.89 586.06 1176.13 586.06 1176.13 575.28 1172.18 575.28 1172.18 567.09 1132.58 567.09 1132.58 575.28 1128.63 575.28 1128.63 586.06 1122.87 586.06 1122.87 598.17 1118.3 598.17 1118.3 921 1186.45 921 1186.45 598.17 1181.89 598.17" fill="#a83226"/><rect x="321.96" y="809.98" width="39.68" height="111.02" fill="#a83226"/><rect x="209.06" y="842.25" width="30.94" height="78.75" fill="#a83226"/><rect x="245.12" y="790.5" width="21.47" height="130.5" fill="#a83226"/><rect x="357.09" y="772.48" width="38.69" height="148.52" fill="#a83226"/><rect x="192.18" y="871.38" width="33.75" height="49.62" fill="#a83226"/><rect x="134.78" y="871.42" width="1337.6" height="49.58" fill="#a83226"/><rect x="182.64" y="831.59" width="45.68" height="89.41" fill="#a83226"/><rect x="92.31" y="873.48" width="16.84" height="47.52" fill="#a83226"/><rect x="111.93" y="842.25" width="11.68" height="78.75" fill="#a83226"/><rect x="77.93" y="867.05" width="24.86" height="53.95" fill="#a83226"/><rect x="54" y="893.92" width="96.63" height="27.08" fill="#a83226"/><rect x="37.93" y="869" width="24.86" height="52" fill="#c8412e"/><rect y="893.92" width="96.63" height="27.08" fill="#a83226"/><rect x="1487.67" y="873.48" width="16.84" height="47.52" fill="#a83226"/><rect x="1507.29" y="842.25" width="11.68" height="78.75" fill="#a83226"/><rect x="1473.29" y="867.05" width="24.86" height="53.95" fill="#a83226"/><rect x="1449.37" y="893.92" width="150.63" height="27.08" fill="#a83226"/><rect x="261.39" y="821.17" width="45.68" height="99.83" fill="#a83226"/><rect x="369.68" y="821.17" width="45.68" height="99.83" fill="#a83226"/><rect x="853.56" y="838.61" width="60.82" height="82.39" fill="#a83226"/><rect x="52.31" y="873.48" width="16.84" height="47.52" fill="#a83226"/><path d="M1046.68,187.7c12.68-3.11,27,3.35,33.21,14.94a15.55,15.55,0,0,1,17.65-4.18,15.76,15.76,0,0,1,9.08,15.8c8-8.55,23.9-7.22,30.4,2.55,2.61,3.91,3.69,9.22,1.46,13.36-3.1,5.76-10.71,6.83-17.2,7.16-31.55,1.6-65.88-2.63-97.5-.35-10.11.73-19.95-.27-20.71-10.16-.92-12,13.34-16,20.76-10.91C1025.22,202.94,1033.62,190.91,1046.68,187.7Z" fill="#efedec"/><path d="M1344.48,207.34c20.61-3.67,44,3.94,54,17.6,6.8-5.87,19-8,28.71-4.92s16,11,14.78,18.63c13-10.09,38.87-8.52,49.44,3,4.24,4.61,6,10.87,2.37,15.76-5,6.78-17.42,8-28,8.43-51.32,1.89-94.75,3.83-145,2.66-13.57-.31-47.32,0-47.25-15.25.07-14.28,21.69-18.68,33.76-12.66C1309.56,225.3,1323.23,211.12,1344.48,207.34Z" fill="#efedec"/><path d="M843.81,326.26c4.57-2.06,10.34-2.12,14.23,1.05,2.77-12.59,16.27-21.73,28.88-19.55,1.89.32,3.91.85,5.64,0a9.12,9.12,0,0,0,3.12-3.2,35.83,35.83,0,0,1,36.46-13.54c13.36,3.19,24.28,15,26.53,28.61a25.26,25.26,0,0,1,25.62-1,25.64,25.64,0,0,1,12.85,22.36,11.19,11.19,0,0,1-.94,4.72c-2.24,4.56-8.29,5.27-13.34,5.38-34.66.73-69.33,1.13-104,1.44-10.79.1-23,2.29-33.52-.42C827.68,347.68,826.76,334,843.81,326.26Z" fill="#efedec"/><path d="M1484.21,325.75c4.7-.84,10,.9,12.31,4a7.36,7.36,0,0,1,6.55-1.12c2.2.7,3.64,2.51,3.36,4.25,3-2.3,8.87-1.94,11.28.68a2.81,2.81,0,0,1,.54,3.59c-1.15,1.55-4,1.84-6.38,1.93-11.7.43-21.6.87-33.06.6-3.09-.07-10.79,0-10.77-3.47,0-3.26,4.94-4.26,7.69-2.89C1476.25,329.85,1479.37,326.61,1484.21,325.75Z" fill="#efedec"/><path d="M341.68,207.33c-3.43-1.9-10.72-1.86-13.58.83a9.1,9.1,0,0,0-4.09-7,18.85,18.85,0,0,0-7.8-2.79c-2-.33-4.41-.42-5.92,1a12.62,12.62,0,0,0-7.24-7.2,14.34,14.34,0,0,0-10.24.1c-2.47,1-4.88,2.89-5.12,5.55a11.59,11.59,0,0,0-10.75.82c-3.09,2.12-4.76,6.37-3.42,9.89A6.09,6.09,0,0,0,271,220.33l2.22.79c6.21.3,60.13,1.41,72.25-.84C348.11,219.77,349.85,211.85,341.68,207.33Z" fill="#efedec"/><path d="M1235.93,455.24a7.06,7.06,0,0,0-7.76,1.32,3.89,3.89,0,0,0-1.94-3.75,9.08,9.08,0,0,0-4.26-1.12c-2.09-.13-4.7.31-5.33,2.32a7.26,7.26,0,0,0-12.82-3.2,9.29,9.29,0,0,0-2.71-6.75,14.71,14.71,0,0,0-6.35-3.72,16.45,16.45,0,0,0-11.12.2,11.58,11.58,0,0,0-7.05,8.35,6.92,6.92,0,0,0,1,5.19,5.27,5.27,0,0,0-5.23-.47,5.38,5.38,0,0,0-3,4.37l.51,2.27c.49,1,1.86,1.23,3,1.28q25.52,1,51.06.05a76.61,76.61,0,0,0,10.15-.83,6.88,6.88,0,0,0,2.55-.82,2.67,2.67,0,0,0,1.33-2.23A3.16,3.16,0,0,0,1235.93,455.24Z" fill="#efedec"/></svg>